/* XPM */
static char *_e85eb030e2949c9b5cc772dd3f3c3dayAVA7k8HAcGcX45J[] = {
/* columns rows colors chars-per-pixel */
"32 32 2 1 ",
"  c None",
". c black",
/* pixels */
"                                ",
"                                ",
"                                ",
"                                ",
"                                ",
"                                ",
"                                ",
"          .......               ",
"        .......  ...            ",
"      .......   .....           ",
"      ......   .......          ",
"     ......    ........         ",
"    ......     ........         ",
"    ......     .........        ",
"    ......      ........        ",
"   .......      ........        ",
"   .......       .......        ",
"   ........      .......        ",
"   ........       ......        ",
"    ........      ......        ",
"    ........      ......        ",
"    .........    ......         ",
"     .......     ......         ",
"      ......    ......          ",
"       ....   .......           ",
"        ..   .......            ",
"           .......              ",
"                                ",
"                                ",
"                                ",
"                                ",
"                                "
};
