/* XPM */
static char *_f683dd75d2f44a1837b80d4190ae1dfVixHK0oqhRSZjMyI[] = {
/* columns rows colors chars-per-pixel */
"16 16 2 1 ",
"  c None",
". c black",
/* pixels */
"                ",
"                ",
"                ",
"      ..        ",
"    ... ..      ",
"   ...  ...     ",
"  ...   ....    ",
"  ...   ....    ",
"  ...    ...    ",
"  ....   ...    ",
"  ....   ...    ",
"   ...  ...     ",
"    .  ...      ",
"      ..        ",
"                ",
"                "
};
