/* XPM */
static char *_8f7ae95b5184ac18c8df909115953a0QTEQ0kMzIHdRtT5b[] = {
/* columns rows colors chars-per-pixel */
"128 128 2 1 ",
"  c None",
". c black",
/* pixels */
"                                                                                                                                ",
"                                                                                                                                ",
"                                                                                                                                ",
"                                                                                                                                ",
"                                                                                                                                ",
"                                                                                                                                ",
"                                                                                                                                ",
"                                                                                                                                ",
"                                                                                                                                ",
"                                                                                                                                ",
"                                                                                                                                ",
"                                                                                                                                ",
"                                                                                                                                ",
"                                                                                                                                ",
"                                                                                                                                ",
"                                                                                                                                ",
"                                                                                                                                ",
"                                                                                                                                ",
"                                                                                                                                ",
"                                                                                                                                ",
"                                                                                                                                ",
"                                                                                                                                ",
"                                                                                                                                ",
"                                                                                                                                ",
"                                                                                                                                ",
"                                                                                                                                ",
"                                                                                                                                ",
"                                              ..................                                                                ",
"                                          ..........................                                                            ",
"                                       ...............................                                                          ",
"                                     ..............................     .                                                       ",
"                                   ..............................      ....                                                     ",
"                                 ..............................      ........                                                   ",
"                               ..............................       ...........                                                 ",
"                              .............................        .............                                                ",
"                             ............................         ...............                                               ",
"                           ............................          .................                                              ",
"                          ............................          ....................                                            ",
"                         ...........................           ......................                                           ",
"                        ..........................             .......................                                          ",
"                       ..........................             .........................                                         ",
"                      ..........................              .........................                                         ",
"                      .........................              ...........................                                        ",
"                     .........................               ............................                                       ",
"                    .........................               ..............................                                      ",
"                   .........................                ..............................                                      ",
"                   ........................                 ...............................                                     ",
"                  ........................                  ................................                                    ",
"                  .......................                   ................................                                    ",
"                 .......................                    .................................                                   ",
"                 .......................                    .................................                                   ",
"                .......................                     ..................................                                  ",
"                .......................                      .................................                                  ",
"               ........................                      ..................................                                 ",
"               .......................                       ..................................                                 ",
"               .......................                        .................................                                 ",
"              ........................                        ..................................                                ",
"              ........................                         .................................                                ",
"              ........................                         .................................                                ",
"              ........................                          ................................                                ",
"              ........................                           ................................                               ",
"             .........................                           ................................                               ",
"             ..........................                           ...............................                               ",
"             ..........................                           ...............................                               ",
"             ..........................                            ..............................                               ",
"             ...........................                            .............................                               ",
"             ...........................                            .............................                               ",
"             ............................                            ............................                               ",
"             ............................                            ............................                               ",
"             .............................                            ...........................                               ",
"             ..............................                           ...........................                               ",
"             ..............................                            ..........................                               ",
"             ...............................                           ..........................                               ",
"             ................................                          ..........................                               ",
"              ...............................                           .........................                               ",
"              ................................                          .........................                               ",
"              ................................                          ........................                                ",
"              .................................                         ........................                                ",
"               .................................                        ........................                                ",
"               .................................                        ........................                                ",
"               ..................................                       .......................                                 ",
"               ..................................                       .......................                                 ",
"                .................................                      ........................                                 ",
"                ..................................                     .......................                                  ",
"                 .................................                     .......................                                  ",
"                 .................................                    .......................                                   ",
"                  ................................                    .......................                                   ",
"                  ................................                   .......................                                    ",
"                   ...............................                  ........................                                    ",
"                   ...............................                 ........................                                     ",
"                    ..............................                .........................                                     ",
"                     .............................                ........................                                      ",
"                      ...........................               .........................                                       ",
"                      ...........................              .........................                                        ",
"                       .........................              ..........................                                        ",
"                        ........................             ..........................                                         ",
"                         ......................             ..........................                                          ",
"                          ....................            ...........................                                           ",
"                           ..................            ...........................                                            ",
"                            .................          ............................                                             ",
"                              ..............         ............................                                               ",
"                               ............        .............................                                                ",
"                                 ........        .............................                                                  ",
"                                  ......       ..............................                                                   ",
"                                    ...      ..............................                                                     ",
"                                           ..............................                                                       ",
"                                         ..............................                                                         ",
"                                          ..........................                                                            ",
"                                              ..................                                                                ",
"                                                                                                                                ",
"                                                                                                                                ",
"                                                                                                                                ",
"                                                                                                                                ",
"                                                                                                                                ",
"                                                                                                                                ",
"                                                                                                                                ",
"                                                                                                                                ",
"                                                                                                                                ",
"                                                                                                                                ",
"                                                                                                                                ",
"                                                                                                                                ",
"                                                                                                                                ",
"                                                                                                                                ",
"                                                                                                                                ",
"                                                                                                                                ",
"                                                                                                                                ",
"                                                                                                                                ",
"                                                                                                                                "
};
