/* XPM */
static char *d46c6517aed74a68ba07930cf11acd46ufl59zxY9iapQWw9[] = {
/* columns rows colors chars-per-pixel */
"64 64 2 1 ",
"  c None",
". c black",
/* pixels */
"                                                                ",
"                                                                ",
"                                                                ",
"                                                                ",
"                                                                ",
"                                                                ",
"                                                                ",
"                                                                ",
"                                                                ",
"                                                                ",
"                                                                ",
"                                                                ",
"                                                                ",
"                        .......                                 ",
"                    ...............                             ",
"                  ...............   .                           ",
"                ...............    ....                         ",
"               ..............    .......                        ",
"             ..............     .........                       ",
"            ..............      ...........                     ",
"           .............       ............                     ",
"           ............       ..............                    ",
"          ............        ...............                   ",
"         ............         ................                  ",
"         ...........          ................                  ",
"        ............          .................                 ",
"        ...........           .................                 ",
"       ............            .................                ",
"       ............            .................                ",
"       ............             ................                ",
"       ............             ................                ",
"       ............              ...............                ",
"       .............              ...............               ",
"       .............              ...............               ",
"       ..............              ..............               ",
"       ..............              ..............               ",
"       ...............              .............               ",
"       ................             ............                ",
"       ................             ............                ",
"       .................            ............                ",
"        ................            ............                ",
"        .................           ...........                 ",
"        .................          ............                 ",
"         ................          ...........                  ",
"          ...............         ............                  ",
"          ...............        ............                   ",
"           ..............       ............                    ",
"            ............       .............                    ",
"             ..........      ..............                     ",
"              ........      ..............                      ",
"               ......     ..............                        ",
"                 ...    ...............                         ",
"                      ...............                           ",
"                     ..............                             ",
"                         .....                                  ",
"                                                                ",
"                                                                ",
"                                                                ",
"                                                                ",
"                                                                ",
"                                                                ",
"                                                                ",
"                                                                ",
"                                                                "
};
